<svg id="svg" version="1.1" xmlns="http://www.w3.org/2000/svg" viewBox="0 0 1145 1380" style="display: block;"><path d="M0 0 C377.85 0 755.7 0 1145 0 C1145 455.4 1145 910.8 1145 1380 C767.15 1380 389.3 1380 0 1380 C0 924.6 0 469.2 0 0 Z " transform="translate(0,0)" style="fill: #FEFEFE;"/><path d="M0 0 C1.47453991 1.37886822 2.9430276 2.76419954 4.41137695 4.1496582 C5.6952832 5.35235352 5.6952832 5.35235352 7.00512695 6.5793457 C27.5025607 26.36326119 42.26850511 51.96393551 53.28637695 78.0246582 C53.57270996 78.68965332 53.85904297 79.35464844 54.15405273 80.03979492 C56.30945193 85.28766705 57.44980838 90.56797473 58.41137695 96.1496582 C59.01908936 95.89796875 59.62680176 95.6462793 60.25292969 95.38696289 C72.80701679 90.22674474 85.02914615 85.54352061 98.41137695 83.1496582 C99.18562012 83.00302734 99.95986328 82.85639648 100.75756836 82.70532227 C144.00861493 74.70383563 189.56604784 83.88083034 226.01220703 108.80737305 C262.82155307 134.9850081 289.10156356 173.2939302 297.11181641 218.03076172 C304.29690221 261.25937878 295.94944613 306.91696488 270.39697266 343.10742188 C268.14172264 346.18173273 265.80179533 349.17959603 263.41137695 352.1496582 C262.69594727 353.04442871 262.69594727 353.04442871 261.96606445 353.95727539 C234.59021839 387.8659938 194.85736783 409.65233976 151.61694336 414.8828125 C150.16476682 415.05850754 148.71380544 415.24460852 147.2644043 415.44189453 C143.28484388 415.97907388 139.42566006 416.26233674 135.41137695 416.2121582 C134.46262695 416.20313477 133.51387695 416.19411133 132.53637695 416.18481445 C131.48450195 416.16741211 131.48450195 416.16741211 130.41137695 416.1496582 C130.43458008 416.93985352 130.4577832 417.73004883 130.48168945 418.54418945 C130.6005551 425.97329263 130.20489161 433.17129019 129.3293457 440.54443359 C128.65351604 446.39800889 128.16760283 452.24972902 127.7512207 458.1262207 C127.63212894 459.74717325 127.51274127 461.36810407 127.39306641 462.98901367 C127.21277058 465.43226921 127.03794081 467.87522726 126.88143921 470.32012939 C126.73253849 472.63449413 126.56210639 474.94645095 126.38793945 477.2590332 C126.34930283 477.95010162 126.3106662 478.64117004 126.27085876 479.35317993 C125.84420118 484.62579661 124.28244404 487.83151082 121.41137695 492.1496582 C119.41137695 493.70825195 119.41137695 493.70825195 117.41137695 494.5871582 C116.42137695 495.04928711 116.42137695 495.04928711 115.41137695 495.52075195 C113.41137695 496.1496582 113.41137695 496.1496582 109.41137695 496.1496582 C109.4287793 497.3871582 109.4287793 497.3871582 109.4465332 498.6496582 C109.53380606 509.82058438 109.434225 521.13448563 107.41137695 532.1496582 C108.25700195 532.1496582 109.10262695 532.1496582 109.97387695 532.1496582 C115.18614083 533.66595315 117.7530217 536.4855327 120.41137695 541.1496582 C120.75376892 543.69821167 120.75376892 543.69821167 120.67285156 546.49291992 C120.64424042 547.55242859 120.61562927 548.61193726 120.58615112 549.70355225 C120.27058652 555.92569058 119.84269637 562.13441812 119.3527832 568.3449707 C119.2426291 569.78682087 119.13293343 571.22870612 119.02366638 572.67062378 C118.73692208 576.44175114 118.44512518 580.21246838 118.15185547 583.98309326 C117.6860298 589.9808383 117.22677981 595.9790907 116.769207 601.9774704 C116.65831346 603.43007486 116.54711026 604.88265572 116.43559647 606.33521271 C115.8291083 614.24622435 115.26161416 622.1541026 114.8762207 630.0793457 C114.60366675 635.63878998 114.13018099 641.14742816 113.5090332 646.67700195 C111.95365897 660.57003148 111.0374986 674.52356827 110.01452637 688.46374512 C109.79381582 691.45952081 109.56967268 694.45503558 109.34552574 697.4505558 C107.95867536 715.74119854 107.95867536 715.74119854 106.8840332 734.05200195 C106.60502801 739.72178012 106.10561861 745.33876253 105.4699707 750.9777832 C104.56989063 758.97609358 103.96994666 766.97768811 103.4465332 775.0090332 C103.36648041 776.21990601 103.28642761 777.43077881 103.20394897 778.67834473 C102.87376056 783.69826695 102.54681125 788.71828787 102.23681641 793.73950195 C102.00553741 797.45517841 101.75852692 801.16954136 101.5090332 804.8840332 C101.41042747 806.57783112 101.41042747 806.57783112 101.30982971 808.30584717 C100.85729007 814.83679792 100.38111275 820.77942368 95.8762207 825.8918457 C91.07829126 829.4504123 88.90745755 830.2779376 82.94213867 830.35498047 C82.27860382 830.36488007 81.61506897 830.37477966 80.931427 830.38497925 C78.73467598 830.41660736 76.53790332 830.44135674 74.34106445 830.46606445 C72.81934034 830.48663286 71.29762196 830.5076293 69.77590942 830.52903748 C65.76793045 830.58426992 61.75989982 830.63367399 57.75183105 830.68188477 C53.66303909 830.73209125 49.57432227 830.78778176 45.4855957 830.84301758 C37.46091963 830.95061348 29.43618075 831.05205524 21.41137695 831.1496582 C21.08379395 832.03226318 20.75621094 832.91486816 20.41870117 833.82421875 C19.761521 835.56892456 19.761521 835.56892456 19.09106445 837.34887695 C18.66035645 838.49960693 18.22964844 839.65033691 17.78588867 840.8359375 C15.88527683 845.41799869 13.43499072 849.23981282 10.41137695 853.1496582 C9.62633789 854.18026367 9.62633789 854.18026367 8.82543945 855.23168945 C-1.46734482 867.86813587 -16.99475798 874.68355051 -32.9440918 876.5402832 C-64.23383125 878.04164475 -98.65908287 856.77654593 -125.58862305 843.1496582 C-118.77040009 858.69121461 -118.77040009 858.69121461 -108.58862305 872.1496582 C-107.86416992 872.96305664 -107.1397168 873.77645508 -106.39331055 874.61450195 C-98.4388427 883.13339573 -88.77490146 889.59891366 -78.40112305 894.8371582 C-74.00209242 897.20267467 -72.43417023 899.49566966 -70.58862305 904.1496582 C-69.69235315 909.62686312 -71.04568172 912.98885225 -74.1081543 917.4152832 C-76.35355479 920.04577876 -78.2959488 921.11666236 -81.58862305 922.1496582 C-96.23503012 923.18388009 -109.87016479 911.14807928 -120.58862305 902.1496582 C-129.57006277 894.34127306 -138.2267678 884.8733687 -143.58862305 874.1496582 C-144.24862305 874.1496582 -144.90862305 874.1496582 -145.58862305 874.1496582 C-146.63036998 875.69253705 -147.59489894 877.28766147 -148.52612305 878.8996582 C-152.7819436 885.79426519 -157.99944873 891.34261502 -163.58862305 897.1496582 C-164.42973633 898.10291992 -164.42973633 898.10291992 -165.2878418 899.07543945 C-173.96237278 908.61514675 -191.14597257 921.4464821 -204.26049805 922.4230957 C-208.63909156 922.0633521 -211.24791453 920.96114557 -214.58862305 918.1496582 C-217.34550257 914.87383665 -218.46128146 911.92785681 -219.15112305 907.7121582 C-218.36508371 902.73390906 -217.22330144 899.72453385 -213.58862305 896.1496582 C-210.43530079 894.03746548 -207.09155205 892.28176227 -203.74243164 890.50341797 C-197.75898922 887.32211424 -192.62579106 883.70709593 -187.58862305 879.1496582 C-186.32791992 878.02817383 -186.32791992 878.02817383 -185.04174805 876.8840332 C-174.92764314 867.38290435 -169.0253597 855.73240856 -163.58862305 843.1496582 C-165.51804468 844.06359477 -167.4474375 844.97759221 -169.37670898 845.8918457 C-171.08652056 846.70144314 -172.79682227 847.5100061 -174.50756836 848.31762695 C-178.77415547 850.33348437 -183.03378292 852.36034106 -187.2722168 854.43481445 C-244.75065532 882.43223744 -244.75065532 882.43223744 -271.92602539 873.4152832 C-288.05631462 867.52206262 -300.26461607 855.72167031 -307.46362305 840.2746582 C-308.79715583 837.24550758 -309.82163747 834.36284363 -310.58862305 831.1496582 C-311.84650131 831.14418976 -311.84650131 831.14418976 -313.12979126 831.13861084 C-321.04544331 831.10069235 -328.96068496 831.04379602 -336.87604713 830.96575546 C-340.94513145 830.92630155 -345.01400004 830.89410306 -349.08325195 830.87866211 C-353.01278154 830.86348144 -356.941718 830.82901184 -360.87098312 830.78134918 C-362.36757619 830.76654974 -363.86425395 830.75861801 -365.36091995 830.75777435 C-367.46301222 830.7553984 -369.56347356 830.72827341 -371.6652832 830.69555664 C-372.85997223 830.68667419 -374.05466125 830.67779175 -375.28555298 830.66864014 C-380.18430071 829.89894361 -384.54668352 827.10417959 -387.58862305 823.1496582 C-389.40678425 818.56290414 -389.99437931 814.21996921 -390.2644043 809.3371582 C-390.33939903 808.17402603 -390.33939903 808.17402603 -390.41590881 806.98739624 C-390.52549513 805.28295871 -390.63172704 803.57830302 -390.73504639 801.87347412 C-391.02976791 797.03975955 -391.35474123 792.20806609 -391.6784668 787.3762207 C-391.7834549 785.80090073 -391.7834549 785.80090073 -391.89056396 784.1937561 C-392.78504234 770.96049074 -393.88075791 757.74357659 -394.96362305 744.5246582 C-395.40076014 739.16405733 -395.8368036 733.8033681 -396.2722168 728.44262695 C-396.35438698 727.43149432 -396.35438698 727.43149432 -396.43821716 726.39993477 C-397.67147123 711.21523219 -398.85818402 696.02702414 -400.02612305 680.8371582 C-400.07669609 680.17988361 -400.12726913 679.52260902 -400.17937469 678.84541702 C-401.50288919 661.63910488 -402.794622 644.43056039 -404.0612793 627.2199707 C-404.12373337 626.37151644 -404.18618744 625.52306217 -404.25053406 624.64889717 C-404.56867151 620.32637367 -404.88666609 616.00383966 -405.20465088 611.68130493 C-405.26798866 610.82039371 -405.33132645 609.9594825 -405.39658356 609.07248306 C-405.52462775 607.33202366 -405.65265407 605.59156295 -405.78066254 603.85110092 C-407.67203482 578.14285045 -409.65553793 552.44482203 -411.75561523 526.75268555 C-413.33898461 507.36831849 -414.85322399 487.97923075 -416.33862305 468.5871582 C-416.39249805 467.88401489 -416.44637306 467.18087158 -416.50188065 466.4564209 C-417.75430694 450.10837459 -417.75430694 450.10837459 -418.33972168 442.38644409 C-418.51270959 440.13685895 -418.69037769 437.88763078 -418.8717041 435.63870239 C-419.00856628 433.92721512 -419.00856628 433.92721512 -419.14819336 432.18115234 C-419.23111633 431.16211319 -419.31403931 430.14307404 -419.3994751 429.09315491 C-419.67688944 424.77606771 -419.6764596 420.47316875 -419.58862305 416.1496582 C-420.77766235 416.17793701 -420.77766235 416.17793701 -421.99072266 416.20678711 C-429.86847078 416.31245077 -437.37573273 415.76384244 -445.15112305 414.5246582 C-446.27373535 414.34717041 -447.39634766 414.16968262 -448.55297852 413.98681641 C-476.12376672 409.37210629 -502.90933871 397.94522048 -524.58862305 380.1496582 C-525.41523437 379.48111816 -525.41523437 379.48111816 -526.25854492 378.79907227 C-545.03395436 363.55059314 -559.46141418 345.61621342 -570.58862305 324.1496582 C-570.90283203 323.5525 -571.21704102 322.9553418 -571.54077148 322.34008789 C-591.47058273 283.99062186 -593.90806734 238.33182255 -581.3190918 197.36450195 C-567.35717848 154.10915712 -536.69936926 118.91756579 -496.58520508 97.91333008 C-472.76892882 85.821721 -447.69139383 80.05638387 -421.02612305 79.8996582 C-419.21543335 79.8855188 -419.21543335 79.8855188 -417.36816406 79.87109375 C-404.81739569 79.91625572 -392.85450206 81.80353103 -380.71362305 84.8996582 C-379.17931641 85.28565186 -379.17931641 85.28565186 -377.61401367 85.67944336 C-369.01999687 87.90617307 -360.78351442 90.75118854 -352.58862305 94.1496582 C-351.87870741 92.46282325 -351.17083575 90.77512815 -350.46362305 89.0871582 C-349.99956055 87.98114258 -349.53549805 86.87512695 -349.05737305 85.7355957 C-348.10901837 83.42019785 -347.19004215 81.09244667 -346.30737305 78.7512207 C-331.60479193 40.02872508 -305.09692349 6.36318403 -271.58862305 -17.8503418 C-271.05140625 -18.24398926 -270.51418945 -18.63763672 -269.96069336 -19.04321289 C-192.19797402 -75.46156565 -79.79234289 -69.88194952 0 0 Z " transform="translate(716.588623046875,257.850341796875)" style="fill: #EFECED;"/><path d="M0 0 C1.47453991 1.37886822 2.9430276 2.76419954 4.41137695 4.1496582 C5.6952832 5.35235352 5.6952832 5.35235352 7.00512695 6.5793457 C27.5025607 26.36326119 42.26850511 51.96393551 53.28637695 78.0246582 C53.57270996 78.68965332 53.85904297 79.35464844 54.15405273 80.03979492 C56.30945193 85.28766705 57.44980838 90.56797473 58.41137695 96.1496582 C59.01908936 95.89796875 59.62680176 95.6462793 60.25292969 95.38696289 C72.80701679 90.22674474 85.02914615 85.54352061 98.41137695 83.1496582 C99.18562012 83.00302734 99.95986328 82.85639648 100.75756836 82.70532227 C144.00861493 74.70383563 189.56604784 83.88083034 226.01220703 108.80737305 C262.82155307 134.9850081 289.10156356 173.2939302 297.11181641 218.03076172 C304.29690221 261.25937878 295.94944613 306.91696488 270.39697266 343.10742188 C268.14172264 346.18173273 265.80179533 349.17959603 263.41137695 352.1496582 C262.69594727 353.04442871 262.69594727 353.04442871 261.96606445 353.95727539 C234.59021839 387.8659938 194.85736783 409.65233976 151.61694336 414.8828125 C150.16476682 415.05850754 148.71380544 415.24460852 147.2644043 415.44189453 C143.28484388 415.97907388 139.42566006 416.26233674 135.41137695 416.2121582 C134.46262695 416.20313477 133.51387695 416.19411133 132.53637695 416.18481445 C131.48450195 416.16741211 131.48450195 416.16741211 130.41137695 416.1496582 C130.43458008 416.93985352 130.4577832 417.73004883 130.48168945 418.54418945 C130.6005551 425.97329263 130.20489161 433.17129019 129.3293457 440.54443359 C128.65351604 446.39800889 128.16760283 452.24972902 127.7512207 458.1262207 C127.63212894 459.74717325 127.51274127 461.36810407 127.39306641 462.98901367 C127.21277058 465.43226921 127.03794081 467.87522726 126.88143921 470.32012939 C126.73253849 472.63449413 126.56210639 474.94645095 126.38793945 477.2590332 C126.34930283 477.95010162 126.3106662 478.64117004 126.27085876 479.35317993 C125.78558403 485.35018481 123.77233151 489.9317918 119.34887695 494.0871582 C114.70360494 495.76736297 110.28155594 495.92088889 105.41137695 495.1496582 C101.51211951 493.20773552 98.90208118 490.22548639 97.41137695 486.1496582 C97.20953874 483.26975344 97.12887782 480.51255883 97.16137695 477.6340332 C97.16669434 476.76591003 97.17201172 475.89778687 97.17749023 475.00335693 C97.34617471 462.77186411 98.42545461 450.5863862 99.41137695 438.3996582 C99.60479486 435.93747426 99.79750757 433.47523481 99.98950195 431.01293945 C100.45535577 425.05784985 100.92982069 419.10349755 101.41137695 413.1496582 C100.60426773 413.02164322 99.79715851 412.89362823 98.96559143 412.76173401 C97.363964 412.50238319 97.363964 412.50238319 95.72998047 412.23779297 C94.14806664 411.98389549 94.14806664 411.98389549 92.53419495 411.72486877 C87.99976418 410.88964478 83.70624152 409.57499736 79.34887695 408.0871582 C78.01203857 407.63469727 78.01203857 407.63469727 76.64819336 407.1730957 C54.76361207 399.53417455 35.62793258 387.87415694 18.5871582 372.13793945 C16.84136322 370.54259 15.07849593 369.05030088 13.22387695 367.5871582 C9.55223573 364.40506915 6.50537927 360.88404705 3.41137695 357.1496582 C2.89833008 356.59407227 2.3852832 356.03848633 1.85668945 355.46606445 C-1.81187104 351.14462455 -2.28745632 347.34790691 -2.01049805 341.73950195 C-1.22721955 336.9310423 1.01416767 334.31399927 4.66137695 331.2746582 C9.46336108 329.31021015 13.44349575 329.4247944 18.20043945 331.17700195 C22.54309016 333.84493213 25.4873667 337.29610557 28.84887695 341.0871582 C48.88711518 362.9139067 75.0351609 378.61561184 104.41137695 384.1496582 C105.36270508 384.35204102 106.3140332 384.55442383 107.29418945 384.76293945 C126.48074266 388.22783297 146.64407088 387.20383202 165.41137695 382.1496582 C166.10730957 381.96773926 166.80324219 381.78582031 167.52026367 381.59838867 C202.91638305 372.13404994 232.60016141 349.5004508 251.22094727 317.93505859 C263.29914701 296.76594316 269.85731919 273.06827702 269.78637695 248.7121582 C269.78583313 248.00822937 269.78528931 247.30430054 269.784729 246.57904053 C269.74271426 234.71441323 268.66787765 223.58916065 265.41137695 212.1496582 C265.21302246 211.41215332 265.01466797 210.67464844 264.81030273 209.91479492 C258.60562502 187.29264856 246.38368875 168.10617935 230.41137695 151.1496582 C229.76168945 150.42391602 229.11200195 149.69817383 228.44262695 148.95043945 C211.93933197 131.27287156 189.29973156 120.67922499 166.41137695 114.1496582 C165.64132324 113.92375 164.87126953 113.6978418 164.07788086 113.46508789 C132.52240533 104.51210704 96.23770625 110.03446446 67.48022461 125.16577148 C64.89448482 126.61038667 62.36614988 128.1313603 59.85668945 129.7043457 C54.85428992 132.66103553 51.34092521 133.57456785 45.6262207 132.74731445 C41.93767694 131.75199312 39.95583198 129.93644228 37.41137695 127.1496582 C35.07725537 122.34652862 33.7388523 117.68866189 32.66137695 112.4621582 C27.45196951 89.35049997 17.55447217 67.21684847 3.41137695 48.1496582 C2.27249023 46.56991211 2.27249023 46.56991211 1.1105957 44.95825195 C-18.87051782 17.9485474 -45.85579569 -1.75921255 -76.58862305 -14.8503418 C-78.39073242 -15.63344727 -78.39073242 -15.63344727 -80.22924805 -16.43237305 C-91.0378242 -20.91744021 -102.28298107 -23.19206412 -113.75878906 -25.31445312 C-115.55671067 -25.65492745 -117.35001029 -26.02165575 -119.13525391 -26.42333984 C-127.88753845 -28.29519645 -136.61817521 -28.20454901 -145.52612305 -28.1628418 C-146.76108521 -28.15960907 -146.76108521 -28.15960907 -148.02099609 -28.15631104 C-160.41224117 -28.10420395 -172.48384089 -27.7439463 -184.58862305 -24.8503418 C-185.42135742 -24.65166504 -186.2540918 -24.45298828 -187.11206055 -24.24829102 C-221.07628901 -15.83912095 -250.0618832 0.34294371 -275.58862305 24.1496582 C-276.44069336 24.92438477 -277.29276367 25.69911133 -278.1706543 26.49731445 C-303.90937255 50.87937992 -320.26064412 85.2715186 -327.76904297 119.52661133 C-329.02172036 123.53577602 -331.32870132 126.52643994 -334.58862305 129.1496582 C-340.42767984 131.09601047 -345.23047699 131.2414438 -350.9128418 128.6105957 C-352.76647902 127.59578232 -354.59793476 126.54606906 -356.43212891 125.49658203 C-385.87968068 108.86527979 -424.25346922 105.20589225 -456.58862305 114.1496582 C-457.33192871 114.3480127 -458.07523438 114.54636719 -458.84106445 114.75073242 C-481.44198368 120.95500311 -500.6592089 133.17322432 -517.58862305 149.1496582 C-518.3259668 149.82254883 -519.06331055 150.49543945 -519.82299805 151.1887207 C-535.20049221 165.74826305 -545.84494679 185.0443603 -552.58862305 204.9621582 C-552.85513672 205.74800293 -553.12165039 206.53384766 -553.39624023 207.34350586 C-557.378311 219.94137658 -559.10039893 232.46568995 -558.97973633 245.63183594 C-558.96359397 247.71591275 -558.97973823 249.79805952 -558.9987793 251.88208008 C-559.05728992 287.62235976 -542.57298507 322.08672286 -517.83862305 347.3371582 C-503.11610722 361.87945717 -484.97177581 372.21342571 -465.58862305 379.1496582 C-464.56897461 379.52864258 -463.54932617 379.90762695 -462.4987793 380.2980957 C-429.09049419 391.73516628 -390.38613581 387.26225284 -358.85424805 372.3215332 C-348.56659784 367.21937725 -339.31053608 360.59660721 -330.58862305 353.1496582 C-329.79198242 352.48708008 -328.9953418 351.82450195 -328.17456055 351.1418457 C-322.45521718 346.22139474 -317.56172773 340.83997453 -312.78637695 335.0222168 C-309.51743996 331.07081557 -306.25293618 327.48181477 -301.58862305 325.1496582 C-296.34553736 324.74634392 -293.02734752 325.28914688 -288.58862305 328.1496582 C-284.63215215 332.42692404 -283.06889927 336.00606835 -283.19799805 341.9230957 C-284.6994526 350.48138667 -293.34785035 357.58349143 -299.1550293 363.64868164 C-300.5097478 365.0670756 -301.84665405 366.50242045 -303.18237305 367.9387207 C-326.15727391 391.9516442 -357.43877114 406.5004039 -389.58862305 413.1496582 C-389.6158965 415.81639562 -389.63559253 418.4828469 -389.65112305 421.1496582 C-389.65950195 421.89344727 -389.66788086 422.63723633 -389.67651367 423.40356445 C-389.69525693 427.71451341 -389.43161578 431.84096999 -388.8359375 436.1081543 C-388.28772599 440.63346984 -388.22963455 445.20830351 -388.07104492 449.76098633 C-387.8331207 455.36791756 -387.30512154 460.91780188 -386.68237305 466.4934082 C-385.22089729 479.74164988 -384.41783299 493.04095996 -383.52612305 506.3371582 C-383.2661319 510.19309 -383.0050834 514.04893971 -382.74134827 517.90461731 C-382.57877953 520.28295172 -382.41836542 522.66143475 -382.26048279 525.04008484 C-381.86943907 530.77798948 -381.33754435 536.44829559 -380.58862305 542.1496582 C-380.4824121 543.64423 -380.39560579 545.14053887 -380.3425293 546.63793945 C-380.3096582 547.4287793 -380.27678711 548.21961914 -380.24291992 549.03442383 C-380.18334992 550.60986016 -380.12593011 552.18537983 -380.07104492 553.76098633 C-379.82491901 559.56119892 -379.28286042 565.30285724 -378.6550293 571.0715332 C-377.65812713 580.23213613 -376.85879116 589.39885953 -376.15600586 598.58642578 C-375.96177317 601.11120429 -375.75971284 603.63528357 -375.55737305 606.15942383 C-375.42929706 607.81108002 -375.30167644 609.46277159 -375.17456055 611.11450195 C-375.11521332 611.84603989 -375.05586609 612.57757782 -374.99472046 613.33128357 C-374.52297058 619.65488554 -374.58862305 625.74828878 -374.58862305 632.1496582 C-334.98862305 632.1496582 -295.38862305 632.1496582 -254.58862305 632.1496582 C-259.34826892 600.41868571 -264.3092677 568.77044122 -269.96060181 537.19641113 C-272.32907458 523.93950214 -274.45225304 510.64809864 -276.49682617 497.33764648 C-277.82825911 488.71108623 -279.30082907 480.13514942 -280.98852539 471.57055664 C-282.06038977 465.4603192 -282.66645914 460.47778416 -280.02612305 454.7746582 C-276.58043818 451.06392066 -273.55481129 448.45940175 -268.3815918 447.91918945 C-263.34183434 448.15100112 -259.67845765 449.57995193 -256.12866211 453.20629883 C-250.23662724 460.64139673 -250.14839909 473.31898297 -248.77120972 482.41992188 C-248.02483844 487.34539307 -247.25379221 492.26699706 -246.4831543 497.1887207 C-246.32633682 498.19247742 -246.16951935 499.19623413 -246.00794983 500.23040771 C-244.4636233 510.05767883 -242.76475905 519.8551767 -241.02612305 529.6496582 C-240.44220422 532.94642979 -239.85887739 536.24330558 -239.27612305 539.5402832 C-239.13418015 540.34309723 -238.99223724 541.14591125 -238.84599304 541.97305298 C-236.70874143 554.09761429 -234.71424312 566.24622578 -232.71063232 578.39343262 C-231.93326227 583.09652792 -231.14138984 587.79698026 -230.33995056 592.49603271 C-229.78313679 595.76130834 -229.22991401 599.0271887 -228.67678833 602.29309082 C-228.41444233 603.83611452 -228.1504077 605.3788523 -227.88449097 606.92126465 C-227.51432665 609.06955508 -227.1505057 611.21884063 -226.7878418 613.3684082 C-226.5798999 614.58463867 -226.37195801 615.80086914 -226.15771484 617.05395508 C-225.41581718 622.39332665 -225.03629365 627.77761093 -224.58862305 633.1496582 C-202.80862305 633.1496582 -181.02862305 633.1496582 -158.58862305 633.1496582 C-158.60957031 626.94072754 -158.63051758 620.73179687 -158.65209961 614.3347168 C-158.71829363 593.85095122 -158.76273173 573.3671815 -158.79587173 552.88333702 C-158.81650401 540.46049934 -158.84463746 528.03776292 -158.89038086 515.61499023 C-158.93022808 504.78831879 -158.95605102 493.96172067 -158.96497703 483.13497794 C-158.97019532 477.40135918 -158.9824743 471.66795022 -159.01154327 465.93439865 C-159.03867879 460.53852144 -159.04707172 455.14294061 -159.04105377 449.74700165 C-159.04215483 447.76606003 -159.05011969 445.78510857 -159.06544495 443.80422592 C-159.08534361 441.0997001 -159.08056268 438.39629361 -159.06964111 435.69174194 C-159.08129248 434.90768364 -159.09294384 434.12362534 -159.10494828 433.3158077 C-159.04805663 428.10449214 -157.86427887 425.17392644 -154.58862305 421.1496582 C-150.75149109 417.76395353 -146.95460843 417.63674648 -142.02612305 417.7980957 C-137.43785789 418.45986472 -134.72243427 420.68312857 -131.95101452 424.26782513 C-130.16088623 428.05443935 -130.18232412 431.47067721 -130.2278595 435.57148743 C-130.22529622 436.41697134 -130.22273295 437.26245525 -130.220092 438.13355988 C-130.21515277 440.96504807 -130.23164934 443.79600239 -130.24804688 446.62744141 C-130.24889312 448.65770963 -130.24841806 450.68797877 -130.24671936 452.71824646 C-130.24585787 458.23025159 -130.26350863 463.74206126 -130.28444123 469.25402093 C-130.30318235 475.01424182 -130.30495645 480.77446708 -130.30851746 486.53471375 C-130.31784545 497.44270842 -130.3424695 508.350613 -130.37256593 519.25856799 C-130.40608641 531.67681468 -130.42259004 544.09506565 -130.43765223 556.51334631 C-130.46901836 582.05884508 -130.52403993 607.60422033 -130.58862305 633.1496582 C-108.80862305 633.1496582 -87.02862305 633.1496582 -64.58862305 633.1496582 C-64.25862305 629.1896582 -63.92862305 625.2296582 -63.58862305 621.1496582 C-63.27468564 618.81166273 -62.93045394 616.47727432 -62.53945923 614.15092468 C-62.22836967 612.27813339 -62.22836967 612.27813339 -61.91099548 610.36750793 C-61.68335428 609.02754102 -61.4556136 607.68759101 -61.2277832 606.34765625 C-60.98578564 604.90233185 -60.74421594 603.45693575 -60.5030365 602.01147461 C-59.85244751 598.12004181 -59.19576983 594.2296598 -58.5377965 590.33946967 C-57.84591381 586.24312619 -57.15932132 582.14589573 -56.47201538 578.04878235 C-55.31697238 571.16818448 -54.1581479 564.28823217 -52.99682617 557.40869141 C-51.66047949 549.4921618 -50.32917225 541.57479827 -49.00080073 533.65692681 C-47.57838962 525.1787941 -46.15238633 516.70126843 -44.72529173 508.22392297 C-44.31810028 505.80370122 -43.91155103 503.38337234 -43.50514603 500.96301842 C-42.86221125 497.13515872 -42.21683278 493.30771818 -41.5696888 489.48056793 C-41.33472235 488.08890473 -41.10050671 486.69711449 -40.86716652 485.30517769 C-40.13098584 480.91569914 -39.36962159 476.53137807 -38.58862305 472.1496582 C-38.47064094 471.47610424 -38.35265883 470.80255028 -38.23110151 470.1085856 C-37.86835101 468.06004611 -37.49049338 466.01483033 -37.10848999 463.96980286 C-36.88777014 462.76471478 -36.66705029 461.55962671 -36.43964195 460.31802082 C-35.25593451 455.91105126 -33.22951268 452.88255091 -29.58862305 450.1496582 C-25.7427688 447.94339211 -23.05223104 447.62890394 -18.58862305 448.1496582 C-14.58152697 449.93222668 -11.45647339 452.14620624 -8.58862305 455.4621582 C-5.59881308 463.4972725 -8.55924752 473.02516666 -9.95947266 481.21948242 C-10.21457295 482.74126835 -10.46908915 484.26315228 -10.72306824 485.78512573 C-11.26930803 489.05087065 -11.81962087 492.31589307 -12.37315178 495.58041 C-13.2495647 500.74945461 -14.11667039 505.92003445 -14.9825592 511.09085083 C-16.3541203 519.27475999 -17.73174036 527.45763542 -19.11202866 535.64007676 C-21.58166619 550.28052502 -24.0441066 564.92218087 -26.49967772 579.56499493 C-27.36069588 584.69761596 -28.22535378 589.82960632 -29.09301174 594.96110892 C-29.63371101 598.16250351 -30.17171616 601.36434693 -30.70907784 604.56630325 C-30.95743187 606.04263492 -31.20691498 607.51877721 -31.45765686 608.9947052 C-31.8019484 611.02216052 -32.14208033 613.0502749 -32.48130798 615.07858276 C-32.7675247 616.77476651 -32.7675247 616.77476651 -33.05952358 618.5052166 C-33.71706294 623.03435326 -34.13323249 627.59575259 -34.58862305 632.1496582 C5.01137695 632.1496582 44.61137695 632.1496582 85.41137695 632.1496582 C85.74137695 623.5696582 86.07137695 614.9896582 86.41137695 606.1496582 C86.74381167 601.08374332 87.0948611 596.04057274 87.5324707 590.9855957 C87.63729263 589.73179108 87.74211456 588.47798645 87.85011292 587.18618774 C88.06819917 584.59726472 88.28919211 582.00858481 88.51318359 579.42016602 C88.73973324 576.79120157 88.96279738 574.16225841 89.17919922 571.5324707 C89.49832785 567.66205588 89.82647677 563.792512 90.1574707 559.9230957 C90.25337997 558.75539642 90.34928925 557.58769714 90.44810486 556.38461304 C91.80060261 541.04954589 91.80060261 541.04954589 95.84887695 536.2746582 C100.28633399 532.59481578 102.59689596 531.74942167 108.20043945 531.90356445 C112.66533964 532.40054098 114.92751867 534.73031436 118.22387695 537.5871582 C123.91345127 544.84837821 120.03147192 559.74133996 119.3527832 568.3449707 C119.2426291 569.78682087 119.13293343 571.22870612 119.02366638 572.67062378 C118.73692208 576.44175114 118.44512518 580.21246838 118.15185547 583.98309326 C117.6860298 589.9808383 117.22677981 595.9790907 116.769207 601.9774704 C116.65831346 603.43007486 116.54711026 604.88265572 116.43559647 606.33521271 C115.8291083 614.24622435 115.26161416 622.1541026 114.8762207 630.0793457 C114.60366675 635.63878998 114.13018099 641.14742816 113.5090332 646.67700195 C111.95365897 660.57003148 111.0374986 674.52356827 110.01452637 688.46374512 C109.79381582 691.45952081 109.56967268 694.45503558 109.34552574 697.4505558 C107.95867536 715.74119854 107.95867536 715.74119854 106.8840332 734.05200195 C106.60502801 739.72178012 106.10561861 745.33876253 105.4699707 750.9777832 C104.56989063 758.97609358 103.96994666 766.97768811 103.4465332 775.0090332 C103.36648041 776.21990601 103.28642761 777.43077881 103.20394897 778.67834473 C102.87376056 783.69826695 102.54681125 788.71828787 102.23681641 793.73950195 C102.00553741 797.45517841 101.75852692 801.16954136 101.5090332 804.8840332 C101.41042747 806.57783112 101.41042747 806.57783112 101.30982971 808.30584717 C100.85729007 814.83679792 100.38111275 820.77942368 95.8762207 825.8918457 C91.07829126 829.4504123 88.90745755 830.2779376 82.94213867 830.35498047 C82.27860382 830.36488007 81.61506897 830.37477966 80.931427 830.38497925 C78.73467598 830.41660736 76.53790332 830.44135674 74.34106445 830.46606445 C72.81934034 830.48663286 71.29762196 830.5076293 69.77590942 830.52903748 C65.76793045 830.58426992 61.75989982 830.63367399 57.75183105 830.68188477 C53.66303909 830.73209125 49.57432227 830.78778176 45.4855957 830.84301758 C37.46091963 830.95061348 29.43618075 831.05205524 21.41137695 831.1496582 C21.08379395 832.03226318 20.75621094 832.91486816 20.41870117 833.82421875 C19.761521 835.56892456 19.761521 835.56892456 19.09106445 837.34887695 C18.66035645 838.49960693 18.22964844 839.65033691 17.78588867 840.8359375 C15.88527683 845.41799869 13.43499072 849.23981282 10.41137695 853.1496582 C9.62633789 854.18026367 9.62633789 854.18026367 8.82543945 855.23168945 C-1.46734482 867.86813587 -16.99475798 874.68355051 -32.9440918 876.5402832 C-64.23383125 878.04164475 -98.65908287 856.77654593 -125.58862305 843.1496582 C-118.77040009 858.69121461 -118.77040009 858.69121461 -108.58862305 872.1496582 C-107.86416992 872.96305664 -107.1397168 873.77645508 -106.39331055 874.61450195 C-98.4388427 883.13339573 -88.77490146 889.59891366 -78.40112305 894.8371582 C-74.00209242 897.20267467 -72.43417023 899.49566966 -70.58862305 904.1496582 C-69.69235315 909.62686312 -71.04568172 912.98885225 -74.1081543 917.4152832 C-76.35355479 920.04577876 -78.2959488 921.11666236 -81.58862305 922.1496582 C-96.23503012 923.18388009 -109.87016479 911.14807928 -120.58862305 902.1496582 C-129.57006277 894.34127306 -138.2267678 884.8733687 -143.58862305 874.1496582 C-144.24862305 874.1496582 -144.90862305 874.1496582 -145.58862305 874.1496582 C-146.63036998 875.69253705 -147.59489894 877.28766147 -148.52612305 878.8996582 C-152.7819436 885.79426519 -157.99944873 891.34261502 -163.58862305 897.1496582 C-164.42973633 898.10291992 -164.42973633 898.10291992 -165.2878418 899.07543945 C-173.96237278 908.61514675 -191.14597257 921.4464821 -204.26049805 922.4230957 C-208.63909156 922.0633521 -211.24791453 920.96114557 -214.58862305 918.1496582 C-217.34550257 914.87383665 -218.46128146 911.92785681 -219.15112305 907.7121582 C-218.36508371 902.73390906 -217.22330144 899.72453385 -213.58862305 896.1496582 C-210.43530079 894.03746548 -207.09155205 892.28176227 -203.74243164 890.50341797 C-197.75898922 887.32211424 -192.62579106 883.70709593 -187.58862305 879.1496582 C-186.32791992 878.02817383 -186.32791992 878.02817383 -185.04174805 876.8840332 C-174.92764314 867.38290435 -169.0253597 855.73240856 -163.58862305 843.1496582 C-165.51804468 844.06359477 -167.4474375 844.97759221 -169.37670898 845.8918457 C-171.08652056 846.70144314 -172.79682227 847.5100061 -174.50756836 848.31762695 C-178.77415547 850.33348437 -183.03378292 852.36034106 -187.2722168 854.43481445 C-244.75065532 882.43223744 -244.75065532 882.43223744 -271.92602539 873.4152832 C-288.05631462 867.52206262 -300.26461607 855.72167031 -307.46362305 840.2746582 C-308.79715583 837.24550758 -309.82163747 834.36284363 -310.58862305 831.1496582 C-311.84650131 831.14418976 -311.84650131 831.14418976 -313.12979126 831.13861084 C-321.04544331 831.10069235 -328.96068496 831.04379602 -336.87604713 830.96575546 C-340.94513145 830.92630155 -345.01400004 830.89410306 -349.08325195 830.87866211 C-353.01278154 830.86348144 -356.941718 830.82901184 -360.87098312 830.78134918 C-362.36757619 830.76654974 -363.86425395 830.75861801 -365.36091995 830.75777435 C-367.46301222 830.7553984 -369.56347356 830.72827341 -371.6652832 830.69555664 C-372.85997223 830.68667419 -374.05466125 830.67779175 -375.28555298 830.66864014 C-380.18430071 829.89894361 -384.54668352 827.10417959 -387.58862305 823.1496582 C-389.40678425 818.56290414 -389.99437931 814.21996921 -390.2644043 809.3371582 C-390.33939903 808.17402603 -390.33939903 808.17402603 -390.41590881 806.98739624 C-390.52549513 805.28295871 -390.63172704 803.57830302 -390.73504639 801.87347412 C-391.02976791 797.03975955 -391.35474123 792.20806609 -391.6784668 787.3762207 C-391.7834549 785.80090073 -391.7834549 785.80090073 -391.89056396 784.1937561 C-392.78504234 770.96049074 -393.88075791 757.74357659 -394.96362305 744.5246582 C-395.40076014 739.16405733 -395.8368036 733.8033681 -396.2722168 728.44262695 C-396.35438698 727.43149432 -396.35438698 727.43149432 -396.43821716 726.39993477 C-397.67147123 711.21523219 -398.85818402 696.02702414 -400.02612305 680.8371582 C-400.07669609 680.17988361 -400.12726913 679.52260902 -400.17937469 678.84541702 C-401.50288919 661.63910488 -402.794622 644.43056039 -404.0612793 627.2199707 C-404.12373337 626.37151644 -404.18618744 625.52306217 -404.25053406 624.64889717 C-404.56867151 620.32637367 -404.88666609 616.00383966 -405.20465088 611.68130493 C-405.26798866 610.82039371 -405.33132645 609.9594825 -405.39658356 609.07248306 C-405.52462775 607.33202366 -405.65265407 605.59156295 -405.78066254 603.85110092 C-407.67203482 578.14285045 -409.65553793 552.44482203 -411.75561523 526.75268555 C-413.33898461 507.36831849 -414.85322399 487.97923075 -416.33862305 468.5871582 C-416.39249805 467.88401489 -416.44637306 467.18087158 -416.50188065 466.4564209 C-417.75430694 450.10837459 -417.75430694 450.10837459 -418.33972168 442.38644409 C-418.51270959 440.13685895 -418.69037769 437.88763078 -418.8717041 435.63870239 C-419.00856628 433.92721512 -419.00856628 433.92721512 -419.14819336 432.18115234 C-419.23111633 431.16211319 -419.31403931 430.14307404 -419.3994751 429.09315491 C-419.67688944 424.77606771 -419.6764596 420.47316875 -419.58862305 416.1496582 C-420.77766235 416.17793701 -420.77766235 416.17793701 -421.99072266 416.20678711 C-429.86847078 416.31245077 -437.37573273 415.76384244 -445.15112305 414.5246582 C-446.27373535 414.34717041 -447.39634766 414.16968262 -448.55297852 413.98681641 C-476.12376672 409.37210629 -502.90933871 397.94522048 -524.58862305 380.1496582 C-525.41523437 379.48111816 -525.41523437 379.48111816 -526.25854492 378.79907227 C-545.03395436 363.55059314 -559.46141418 345.61621342 -570.58862305 324.1496582 C-570.90283203 323.5525 -571.21704102 322.9553418 -571.54077148 322.34008789 C-591.47058273 283.99062186 -593.90806734 238.33182255 -581.3190918 197.36450195 C-567.35717848 154.10915712 -536.69936926 118.91756579 -496.58520508 97.91333008 C-472.76892882 85.821721 -447.69139383 80.05638387 -421.02612305 79.8996582 C-419.21543335 79.8855188 -419.21543335 79.8855188 -417.36816406 79.87109375 C-404.81739569 79.91625572 -392.85450206 81.80353103 -380.71362305 84.8996582 C-379.17931641 85.28565186 -379.17931641 85.28565186 -377.61401367 85.67944336 C-369.01999687 87.90617307 -360.78351442 90.75118854 -352.58862305 94.1496582 C-351.87870741 92.46282325 -351.17083575 90.77512815 -350.46362305 89.0871582 C-349.99956055 87.98114258 -349.53549805 86.87512695 -349.05737305 85.7355957 C-348.10901837 83.42019785 -347.19004215 81.09244667 -346.30737305 78.7512207 C-331.60479193 40.02872508 -305.09692349 6.36318403 -271.58862305 -17.8503418 C-271.05140625 -18.24398926 -270.51418945 -18.63763672 -269.96069336 -19.04321289 C-192.19797402 -75.46156565 -79.79234289 -69.88194952 0 0 Z " transform="translate(716.588623046875,257.850341796875)" style="fill: #010101;"/><path d="M0 0 C1.9375 0.3125 1.9375 0.3125 4 1 C4.33 1.99 4.66 2.98 5 4 C5.66 4 6.32 4 7 4 C8 5.66666667 9 7.33333333 10 9 C11.61838719 10.71358643 13.29671681 12.3707726 15 14 C16.61030301 15.55617517 18.2140451 17.11915728 19.8125 18.6875 C20.60269531 19.45449219 21.39289063 20.22148438 22.20703125 21.01171875 C24 23 24 23 24 25 C24.61875 25.309375 25.2375 25.61875 25.875 25.9375 C27.25 26.625 28.625 27.3125 30 28 C30 28.66 30 29.32 30 30 C30.57878906 30.28230469 31.15757812 30.56460938 31.75390625 30.85546875 C33.87251693 31.93503906 35.90607164 33.07755246 37.9375 34.3125 C38.58589844 34.70050781 39.23429687 35.08851563 39.90234375 35.48828125 C42 37 42 37 44.1171875 39.2734375 C48.07474828 43.01649634 52.49684227 45.57651828 57.1875 48.3125 C58.15985596 48.88282959 59.13221191 49.45315918 60.1340332 50.04077148 C68.81893921 55.04924923 77.69726527 59.2798838 87 63 C87.97710938 63.39445313 88.95421875 63.78890625 89.9609375 64.1953125 C102.27371771 68.89117762 114.9009725 72.47367853 128 74 C127.96970703 74.56170898 127.93941406 75.12341797 127.90820312 75.70214844 C127.55148076 82.46615322 127.25430602 89.2313825 127 96 C126.96310059 96.95970703 126.92620117 97.91941406 126.88818359 98.90820312 C126.79629306 101.60554365 126.73628513 104.30157225 126.6875 107 C126.65785156 107.81694336 126.62820313 108.63388672 126.59765625 109.47558594 C126.54423267 114.80236202 127.4381073 117.78990701 131 122 C133.90092502 123.93395001 134.89674737 124.30131941 138.1875 124.625 C139.445625 124.74875 140.70375 124.8725 142 125 C140.68 125.33 139.36 125.66 138 126 C138.01160156 126.825 138.02320313 127.65 138.03515625 128.5 C138.12242911 139.67092618 138.02284805 150.98482743 136 162 C134.1746875 162.3403125 134.1746875 162.3403125 132.3125 162.6875 C127.97586421 163.80044193 125.71652783 165.32469764 123 169 C120.86739678 175.82452741 120.3455709 182.67048007 119.78125 189.7734375 C119.67784302 191.01002106 119.57443604 192.24660461 119.46789551 193.5206604 C119.19431306 196.80806483 118.92649578 200.0958716 118.66143799 203.38397217 C118.39791587 206.63401192 118.12618753 209.88336551 117.85546875 213.1328125 C116.50654529 229.4172823 115.25327195 245.70746471 114 262 C74.4 262 34.8 262 -6 262 C-6 250.75034141 -6 250.75034141 -5.01293945 244.92892456 C-4.90676709 244.28899067 -4.80059473 243.64905678 -4.69120502 242.98973095 C-4.33958501 240.88224171 -3.97648522 238.77690778 -3.61328125 236.67138672 C-3.35640699 235.14608664 -3.10027316 233.6206617 -2.84481812 232.09512329 C-2.296206 228.82815459 -1.7425545 225.56209583 -1.18490601 222.29665756 C-0.30246455 217.12835552 0.56775386 211.95804014 1.4362793 206.78738403 C3.12443067 196.74711372 4.82443902 186.70886992 6.52610779 176.67088318 C8.69295684 163.88684353 10.85572931 151.10212932 13.00514317 138.31514561 C13.86879243 133.17982675 14.73898933 128.04567429 15.61436462 122.91234183 C16.15816761 119.71575994 16.69656638 116.51828453 17.23356247 113.32055283 C17.48280813 111.84318493 17.73429417 110.36619291 17.98823929 108.88962555 C20.69703257 96.58033759 20.69703257 96.58033759 18.375 84.6875 C14.80635297 80.64929414 11.82920294 79.22865037 6.5 78.5625 C1.66086849 79.16739144 -1.21681905 81.13422587 -4.55691528 84.62902832 C-6.58234518 87.95678647 -7.15258647 91.40583264 -7.83935547 95.18554688 C-8.004093 96.0503643 -8.16883053 96.91518173 -8.3385601 97.80620575 C-10.82160502 111.07122598 -12.98379075 124.39652465 -15.18601084 137.71048927 C-15.83930278 141.65565638 -16.49639626 145.60019041 -17.15304565 149.5447998 C-18.39270492 156.995091 -19.62906536 164.4459255 -20.86417472 171.89697218 C-22.2645502 180.34402815 -23.66863036 188.79046698 -25.07302499 197.23685551 C-27.47572396 211.68766112 -29.87578938 226.13890186 -32.27252197 240.59069824 C-32.57088455 242.38954468 -32.57088455 242.38954468 -32.87527466 244.22473145 C-33.04522005 245.24959908 -33.21516544 246.27446671 -33.3902607 247.33039093 C-34.25819853 252.55392255 -35.12948293 257.7768976 -36 263 C-57.78 263 -79.56 263 -102 263 C-102.0093457 256.79106934 -102.01869141 250.58213867 -102.02832031 244.18505859 C-102.06204419 223.70120457 -102.11736553 203.21745131 -102.18390274 182.73367882 C-102.22372557 170.31089433 -102.25610161 157.88817348 -102.27099609 145.46533203 C-102.28399576 134.6385884 -102.31091739 123.81198461 -102.35461307 112.98531973 C-102.37726567 107.25175197 -102.3929084 101.51835694 -102.39188385 95.78474045 C-102.39113949 90.38878101 -102.40900029 84.99320397 -102.44116783 79.59734344 C-102.44969086 77.61643594 -102.45140052 75.63548565 -102.44580269 73.65456772 C-102.43917748 70.94995807 -102.45704771 68.24657034 -102.48101807 65.54208374 C-102.47325765 64.75802544 -102.46549723 63.97396714 -102.45750165 63.1661495 C-102.53901428 57.9715565 -103.7188368 55.00590067 -107 51 C-111.20569084 48.07797383 -116.07881838 48.36350648 -121 49 C-125.08671931 51.04335965 -127.44595336 52.70823834 -129 57 C-129.19756566 59.8001818 -129.28533171 62.50136532 -129.2784729 65.30157471 C-129.2871615 66.56851894 -129.2871615 66.56851894 -129.29602563 67.861058 C-129.31305119 70.69549645 -129.31590434 73.52977233 -129.31884766 76.36425781 C-129.32814406 78.39438274 -129.3383123 80.42450383 -129.34928894 82.45462036 C-129.37663537 87.97072836 -129.39175212 93.48681076 -129.40471697 99.00296879 C-129.42032719 104.76590481 -129.44712412 110.52878838 -129.4727478 116.29168701 C-129.51957296 127.20673523 -129.55629899 138.12179328 -129.58942068 149.03689075 C-129.62761566 161.46241432 -129.67703269 173.88788526 -129.72740483 186.31336451 C-129.8307803 211.87554236 -129.91854092 237.43774226 -130 263 C-151.78 263 -173.56 263 -196 263 C-196.845625 257.885 -197.69125 252.77 -198.5625 247.5 C-200.64068462 234.97332484 -202.78683582 222.46087298 -205.00216675 209.95776367 C-207.65264736 194.99392863 -210.14468336 180.01314188 -212.5 165 C-214.79200939 150.39378872 -217.19089093 135.81192444 -219.75 121.25 C-219.89284424 120.43595703 -220.03568848 119.62191406 -220.18286133 118.78320312 C-220.85397921 114.96604974 -221.53330655 111.1507309 -222.22851562 107.33789062 C-222.76055236 104.40457934 -223.24259615 101.46833688 -223.69335938 98.52148438 C-223.81076477 97.7999115 -223.92817017 97.07833862 -224.0491333 96.3348999 C-224.36803961 94.37329838 -224.66955106 92.40889096 -224.96972656 90.44433594 C-226.42544197 85.57769306 -228.89810897 82.34287482 -233.25 79.5625 C-238.5853453 78.47117937 -243.28385918 78.9411046 -247.9375 81.8125 C-252.01297891 86.13497764 -252.28668478 89.56040877 -252.16436768 95.31036377 C-251.90653348 99.5294427 -251.23150687 103.62130079 -250.4609375 107.7734375 C-250.21905701 109.13677216 -250.21905701 109.13677216 -249.97229004 110.52764893 C-249.62668033 112.47037441 -249.27724065 114.41242188 -248.92425537 116.3538208 C-248.17527981 120.47356094 -247.44511474 124.59657227 -246.71365356 128.7194519 C-246.34180377 130.81412768 -245.96897932 132.90863067 -245.59518433 135.00296021 C-243.95518843 144.19953512 -242.39673642 153.40821616 -240.875 162.625 C-240.63333983 164.08529292 -240.39164063 165.54557938 -240.14990234 167.00585938 C-239.79081102 169.17589196 -239.43190349 171.34595412 -239.07357788 173.51611328 C-238.22673047 178.64237652 -237.369544 183.76684442 -236.5078125 188.890625 C-234.98933614 197.92447856 -233.48680939 206.96087997 -232 216 C-231.8621106 216.83768921 -231.72422119 217.67537842 -231.58215332 218.53845215 C-230.72301797 223.7654091 -229.87258418 228.99368448 -229.03222656 234.22369385 C-228.76386086 235.88855065 -228.49340296 237.55307175 -228.22070312 239.21722412 C-227.8415722 241.53450865 -227.4705811 243.85296151 -227.1015625 246.171875 C-226.93329453 247.18518387 -226.93329453 247.18518387 -226.7616272 248.21896362 C-226.0182439 252.96945643 -226 257.06920438 -226 262 C-250.09 262 -274.18 262 -299 262 C-300.90042484 240.46185186 -302.76648678 218.93066655 -304.4375 197.375 C-304.54393484 196.00956677 -304.6504424 194.64413921 -304.75701904 193.27871704 C-306.38432618 172.41808723 -307.91168195 151.55146292 -309.37020874 130.67828369 C-310.46742746 114.98549464 -311.65506187 99.30688338 -313.13720703 83.64526367 C-313.83192233 76.06934937 -314.15871421 68.60770091 -314 61 C-312.97261719 60.49210938 -311.94523437 59.98421875 -310.88671875 59.4609375 C-292.68072712 50.4317706 -276.2829746 40.90847563 -260.9375 27.4375 C-258 25 -258 25 -256 25 C-255.731875 24.360625 -255.46375 23.72125 -255.1875 23.0625 C-254 21 -254 21 -251 20 C-250.29257339 18.68783773 -249.6319726 17.35012328 -249 16 C-247.87695108 14.54851225 -246.70778017 13.1317824 -245.5 11.75 C-244.8915625 11.04359375 -244.283125 10.3371875 -243.65625 9.609375 C-242 8 -242 8 -240 8 C-239.896875 7.38125 -239.79375 6.7625 -239.6875 6.125 C-239 4 -239 4 -236 2 C-233.11634933 2.41613658 -230.46434096 3.52200263 -227.75 4.5625 C-227.04359375 4.83191406 -226.3371875 5.10132813 -225.609375 5.37890625 C-224.81273437 5.68634766 -224.81273437 5.68634766 -224 6 C-224 6.66 -224 7.32 -224 8 C-223.41734375 8.15855469 -222.8346875 8.31710937 -222.234375 8.48046875 C-217.51352147 9.8239821 -213.00580196 11.36166396 -208.5 13.3125 C-197.72643747 17.89995243 -186.503046 22.0292492 -174.87109375 23.67578125 C-173 24 -173 24 -172 25 C-166.71343008 26.24851516 -161.36130167 27.14003055 -156 28 C-155.31631348 28.11021484 -154.63262695 28.22042969 -153.92822266 28.33398438 C-116.16281638 34.02826412 -72.77668143 31.6890846 -37.34375 16.890625 C-34.74556937 15.90331636 -32.75592337 15.84251866 -30 16 C-30 15.34 -30 14.68 -30 14 C-29.15179687 13.72027344 -28.30359375 13.44054687 -27.4296875 13.15234375 C-19.50786593 10.44499594 -12.1761092 7.25178836 -4.765625 3.35546875 C-2 2 -2 2 0 2 C0 1.34 0 0.68 0 0 Z " transform="translate(688,628)" style="fill: #EEEBEC;"/><path d="M0 0 C149.82 0 299.64 0 454 0 C454 8.64544859 453.82213745 16.97607055 453.08203125 25.546875 C452.98449554 26.72972076 452.88695984 27.91256653 452.78646851 29.1312561 C452.57592546 31.67889924 452.36304976 34.22635049 452.14804077 36.77362061 C451.62986876 42.91430057 451.1258033 49.0561306 450.62114143 55.1979332 C450.44401394 57.35172739 450.26626602 59.50546981 450.08848572 61.65921021 C448.78362278 77.49832862 447.56557019 93.34404527 446.35448837 109.19056702 C446.18717148 111.37929744 446.01960647 113.56800873 445.85195923 115.75671387 C445.23304531 123.83768862 444.61618373 131.91881589 444 140 C427.17 140 410.34 140 393 140 C390.69 134.72 388.38 129.44 386 124 C376.565306 109.49591818 364.31868947 100.51618228 347.5625 96.1875 C312.58954414 89.03674287 272.10794495 114.33979349 242.3203125 130.60546875 C241.35085693 131.13269531 240.38140137 131.65992188 239.38256836 132.203125 C237.64823725 133.1583504 235.92400184 134.13226499 234.21313477 135.12890625 C233.46604248 135.54398438 232.7189502 135.9590625 231.94921875 136.38671875 C231.32362061 136.74983154 230.69802246 137.11294434 230.0534668 137.48706055 C225.20118792 138.6991207 220.22838228 135.20244779 216.0546875 132.98046875 C214.90959717 132.3767041 213.76450684 131.77293945 212.5847168 131.15087891 C211.98106293 130.83096985 211.37740906 130.51106079 210.75546265 130.18145752 C158.20635872 100.12809882 158.20635872 100.12809882 100.5390625 97.7421875 C85.61202299 103.04738256 73.75747552 112.85130059 66.46484375 126.97265625 C64.48615158 131.25886116 62.75348119 135.61629703 61 140 C44.17 140 27.34 140 10 140 C9.34 131.75 8.68 123.5 8 115 C7.505 112.03 7.505 112.03 7 109 C6.82721001 107.18785177 6.68027622 105.37308198 6.55712891 103.55688477 C6.48368256 102.49936508 6.41023621 101.4418454 6.33456421 100.35227966 C6.25767365 99.20606644 6.18078308 98.05985321 6.1015625 96.87890625 C5.92645541 94.34779487 5.7509817 91.81670883 5.57519531 89.28564453 C5.52929197 88.61966594 5.48338863 87.95368734 5.43609428 87.26752758 C4.93753738 80.04592452 4.40705279 72.82672184 3.87703705 65.60737228 C3.54217592 61.03597422 3.21138993 56.46427958 2.88019943 51.89261436 C2.59761541 47.99458295 2.31351535 44.09667267 2.02636719 40.19897461 C1.74177607 36.33493419 1.46110032 32.47062669 1.18303299 28.60611153 C1.07837491 27.16094468 0.97236092 25.71587524 0.86484909 24.27091789 C0.71526105 22.25762643 0.57117331 20.24392867 0.42724609 18.23022461 C0.34445404 17.09556259 0.26166199 15.96090057 0.17636108 14.79185486 C-0.0527331 9.8662109 0 4.93096873 0 0 Z " transform="translate(345,919)" style="fill: #FDBC67;"/><path d="M0 0 C2.89929295 2.47317208 3.96129999 4.97109276 5.3125 8.5 C7.4382344 13.81756659 9.93261368 18.75028328 12.765625 23.72265625 C14 26 14 26 15 29 C15.66 29.33 16.32 29.66 17 30 C16.360625 30.61875 15.72125 31.2375 15.0625 31.875 C11.41017317 35.6380034 11.48350561 38.95946529 11.5234375 44.05078125 C12.35804432 49.21576605 15.51862977 52.28559687 19 56 C19.98168588 57.20628754 20.96102336 58.41449177 21.9375 59.625 C25.29847265 63.47997388 29.0897987 66.71728033 33 70 C33.886875 70.77472656 34.77375 71.54945313 35.6875 72.34765625 C56.69885404 90.4252441 81.67412548 102.52095975 108.75390625 108.2734375 C112 109 112 109 114 110 C114.12389138 116.49741484 113.95295778 122.95308539 113.5625 129.4375 C113.50364624 130.46617187 113.50364624 130.46617187 113.44360352 131.515625 C113.2341278 134.77717394 112.95401299 137.86538589 112 141 C101.31735756 140.79563641 92.06972626 138.3261557 82 135 C80.81277344 134.61714844 79.62554688 134.23429688 78.40234375 133.83984375 C60.53983511 127.78996998 40.00743631 118.86862035 26 106 C26 105.34 26 104.68 26 104 C25.13375 103.773125 24.2675 103.54625 23.375 103.3125 C19.33426745 101.74110401 17.12802891 99.97907516 14 97 C14 96.34 14 95.68 14 95 C13.443125 94.773125 12.88625 94.54625 12.3125 94.3125 C10.01353225 93.00768047 8.38535451 91.53917738 6.5703125 89.6328125 C5.29898437 88.31088424 3.99414479 87.02123854 2.6796875 85.7421875 C1.85726563 84.94039062 1.03484375 84.13859375 0.1875 83.3125 C-0.60269531 82.54550781 -1.39289063 81.77851562 -2.20703125 80.98828125 C-4 79 -4 79 -4 77 C-4.639375 76.7525 -5.27875 76.505 -5.9375 76.25 C-8 75 -8 75 -8.75 72.875 C-8.8325 72.25625 -8.915 71.6375 -9 71 C-9.66 71 -10.32 71 -11 71 C-11.66 70.01 -12.32 69.02 -13 68 C-13.99 67.67 -14.98 67.34 -16 67 C-16 67.66 -16 68.32 -16 69 C-39.21359223 81 -39.21359223 81 -46 81 C-46 81.66 -46 82.32 -46 83 C-46.76957031 83.22042969 -46.76957031 83.22042969 -47.5546875 83.4453125 C-51.62828619 84.63858888 -55.64099677 85.86508302 -59.6171875 87.359375 C-73.97049885 92.69725322 -88.89255036 94.86442053 -104 97 C-105.27633301 97.18175781 -106.55266602 97.36351562 -107.86767578 97.55078125 C-112.19269171 98.0803282 -116.47469745 98.16113824 -120.828125 98.16796875 C-121.65105042 98.1721582 -122.47397583 98.17634766 -123.32183838 98.18066406 C-125.96460845 98.19037853 -128.60721515 98.19046532 -131.25 98.1875 C-132.15016846 98.18722809 -133.05033691 98.18695618 -133.9777832 98.18667603 C-146.7370353 98.1688805 -159.37373021 98.03018869 -172 96 C-172.74088867 95.88221191 -173.48177734 95.76442383 -174.24511719 95.64306641 C-181.00009961 94.53557357 -187.5031199 93.18806843 -194 91 C-196.4546381 90.40130778 -198.91336112 89.81922278 -201.375 89.25 C-214.79442567 86.00351566 -227.39665591 80.55334849 -240 75 C-240 74.34 -240 73.68 -240 73 C-240.556875 72.87625 -241.11375 72.7525 -241.6875 72.625 C-244 72 -244 72 -246.375 70.875 C-249.60445918 69.79851361 -251.72471261 70.23830526 -255 71 C-255.061875 71.556875 -255.12375 72.11375 -255.1875 72.6875 C-256.3447487 75.98120783 -258.48318929 77.59504754 -261 80 C-261.94773087 81.11639484 -262.88475873 82.24193893 -263.8125 83.375 C-267.19541299 87.35741655 -271.00004873 90.65214162 -275 94 C-276.38251953 95.17949219 -276.38251953 95.17949219 -277.79296875 96.3828125 C-315.16313073 128 -315.16313073 128 -330 128 C-329.61045487 133.11482908 -329.21975077 138.22956809 -328.828125 143.34423828 C-328.69599649 145.07175499 -328.56414562 146.79929297 -328.43261719 148.52685547 C-327.76073534 157.349181 -327.07554236 166.16973396 -326.32601929 174.98583984 C-325.33513716 186.65222678 -324.43420109 198.32422326 -323.5625 210 C-323.46771425 211.26947983 -323.46771425 211.26947983 -323.37101364 212.56460571 C-322.84630101 219.59827913 -322.32418922 226.63214531 -321.80212402 233.66601562 C-320.1043431 256.53519806 -318.37088676 279.39733539 -316.3671875 302.2421875 C-316.28339844 303.20253906 -316.19960938 304.16289063 -316.11328125 305.15234375 C-315.94961773 307.02240068 -315.7827792 308.89218162 -315.61328125 310.76171875 C-315.53207031 311.70402344 -315.45085937 312.64632813 -315.3671875 313.6171875 C-315.29612793 314.41753418 -315.22506836 315.21788086 -315.15185547 316.04248047 C-314.93036169 320.35626763 -315 324.68053022 -315 329 C-330.51 329 -346.02 329 -362 329 C-362.26554687 325.53886719 -362.53109375 322.07773437 -362.8046875 318.51171875 C-363.06886684 315.09247998 -363.33395292 311.6733126 -363.59912109 308.25415039 C-363.78040354 305.91047321 -363.96076997 303.56672496 -364.14013672 301.22290039 C-365.06138293 289.19266013 -365.98451151 277.17145351 -367.35848999 265.1829071 C-367.92669177 260.14576493 -368.23707491 255.12707449 -368.4375 250.0625 C-368.87161197 240.05084921 -369.7099621 230.08502745 -370.57095337 220.10324097 C-371.87445372 204.95766466 -372.96915868 189.80087222 -373.99755859 174.63427734 C-374.11555785 172.92545559 -374.23355906 171.21663397 -374.3515625 169.5078125 C-374.42796967 168.34762604 -374.42796967 168.34762604 -374.50592041 167.16400146 C-374.79156792 163.05298265 -375.29876121 159.0581414 -376 155 C-376.12348025 153.44217565 -376.21864524 151.88176846 -376.28125 150.3203125 C-376.31863281 149.47339844 -376.35601562 148.62648438 -376.39453125 147.75390625 C-376.42933594 146.88636719 -376.46414063 146.01882813 -376.5 145.125 C-376.78011848 138.00807997 -376.78011848 138.00807997 -377.52734375 130.9296875 C-378.05033714 126.58149453 -378.11174553 122.3714882 -378.0625 118 C-378.05798828 117.22527344 -378.05347656 116.45054687 -378.04882812 115.65234375 C-378.03719758 113.76819476 -378.01926906 111.88408635 -378 110 C-373.747304 108.52642145 -369.49070713 107.33903854 -365.125 106.25 C-337.36525517 98.93326568 -312.68529696 84.8647232 -292 65 C-291.08605469 64.13761719 -290.17210937 63.27523437 -289.23046875 62.38671875 C-277.43219811 51.5115753 -277.43219811 51.5115753 -271.75 37.25 C-271.79420073 33.1835324 -272.9176722 30.52393935 -275 27 C-276.25 24.75 -276.25 24.75 -277 23 C-276.67 22.34 -276.34 21.68 -276 21 C-275.34 21 -274.68 21 -274 21 C-273.82984375 20.1646875 -273.82984375 20.1646875 -273.65625 19.3125 C-272.65168709 15.77261166 -270.85951941 12.68559515 -269.15625 9.4375 C-268.1279202 7.26966961 -267.47688783 5.34108569 -267 3 C-264 3 -264 3 -262 5 C-261.57332031 5.45375 -261.14664063 5.9075 -260.70703125 6.375 C-255.56320939 11.27163591 -249.3820059 15.22465659 -243.3125 18.875 C-242.219375 19.57625 -241.12625 20.2775 -240 21 C-240 21.66 -240 22.32 -240 23 C-237.34595936 24.04385696 -237.34595936 24.04385696 -234 24 C-232.32781105 22.73123727 -232.32781105 22.73123727 -230.75 21.0625 C-227.95532958 18.40469657 -226.26031332 17.55786068 -222.39453125 17.546875 C-216.58361965 17.73413553 -212.11403445 19.69841418 -206.9375 22.1875 C-197.78116128 26.34422581 -188.7457902 29.5554538 -179 32 C-177.26943359 32.44279297 -177.26943359 32.44279297 -175.50390625 32.89453125 C-128.58310821 43.90600177 -77.91068666 35.29988122 -37 10.0625 C-34.92276827 8.74991677 -32.85039862 7.4313956 -30.7890625 6.09399414 C-26.29654836 3.34686589 -23.38323813 2.53592775 -18 3 C-14.8125 4.4375 -14.8125 4.4375 -12 6 C-10.11261852 6.91846642 -10.11261852 6.91846642 -8 7 C-5.76777454 5.59231728 -5.76777454 5.59231728 -3.75 3.5625 C-3.04359375 2.90378906 -2.3371875 2.24507812 -1.609375 1.56640625 C-1.07828125 1.04949219 -0.5471875 0.53257812 0 0 Z " transform="translate(704,561)" style="fill: #E1D8DB;"/><path d="M0 0 C0 0.33 0 0.66 0 1 C-0.6084375 1.06316406 -1.216875 1.12632812 -1.84375 1.19140625 C-14.07991549 2.90087055 -25.48796122 8.68883225 -36 15 C-36.84175781 15.495 -37.68351562 15.99 -38.55078125 16.5 C-42.26702274 18.70221718 -45.94154885 20.92477694 -49.5 23.375 C-52 25 -52 25 -54 25 C-54 25.66 -54 26.32 -54 27 C-54.66 27 -55.32 27 -56 27 C-56 27.66 -56 28.32 -56 29 C-57.4103177 30.22427579 -58.88148931 31.37871813 -60.375 32.5 C-67.98634856 38.44636606 -74.82906851 44.81269181 -80 53 C-80.66 53 -81.32 53 -82 53 C-82.309375 53.78375 -82.61875 54.5675 -82.9375 55.375 C-84 58 -84 58 -85 60 C-85.66 60 -86.32 60 -87 60 C-87.4021875 61.0828125 -87.4021875 61.0828125 -87.8125 62.1875 C-89.36894257 65.87381134 -91.44610027 69.11376043 -93.5625 72.5 C-94.97171627 74.95081091 -95.97699006 77.36940301 -97 80 C-97.75891425 81.46457137 -98.53031037 82.92272609 -99.3125 84.375 C-104.07624887 93.87447568 -106.91258564 103.98937061 -109.25 114.3125 C-109.41314697 115.02857422 -109.57629395 115.74464844 -109.74438477 116.48242188 C-114.87019341 140.2919258 -113.05804588 165.61054774 -107 189 C-106.75048584 189.97396729 -106.50097168 190.94793457 -106.24389648 191.95141602 C-105.01657741 196.60882441 -103.77082251 201.07755701 -101.6875 205.4375 C-101.25695312 206.34242188 -100.82640625 207.24734375 -100.3828125 208.1796875 C-99.92648438 209.11039063 -99.47015625 210.04109375 -99 211 C-98.52304688 211.99257813 -98.04609375 212.98515625 -97.5546875 214.0078125 C-91.70267675 225.98758319 -84.85527774 238.34919803 -75.19921875 247.75390625 C-74 249 -74 249 -74 251 C-73.34 251 -72.68 251 -72 251 C-70.484375 252.57421875 -70.484375 252.57421875 -68.75 254.6875 C-66.49924272 257.35349133 -64.29950455 259.71010091 -61.5625 261.875 C-60.716875 262.57625 -59.87125 263.2775 -59 264 C-59 264.66 -59 265.32 -59 266 C-58.01 266 -57.02 266 -56 266 C-56 266.66 -56 267.32 -56 268 C-54.5459375 268.37125 -54.5459375 268.37125 -53.0625 268.75 C-52.051875 269.1625 -51.04125 269.575 -50 270 C-49.125 272.125 -49.125 272.125 -49 274 C-76.26671629 271.50133184 -100.82014848 254.45988712 -120 236 C-120.63164062 235.43152344 -121.26328125 234.86304688 -121.9140625 234.27734375 C-138.79456916 218.63687431 -149.20965809 195.94276151 -155.75 174.3125 C-156.04825684 173.33422241 -156.04825684 173.33422241 -156.35253906 172.33618164 C-159.44663895 161.61430291 -160.35018781 150.9828994 -160.31567383 139.87451172 C-160.31252401 137.76606936 -160.33603675 135.65905061 -160.36132812 133.55078125 C-160.42479055 120.21503661 -158.29160048 107.4705146 -154 94.8125 C-153.70657715 93.94375244 -153.4131543 93.07500488 -153.11083984 92.17993164 C-146.16066522 72.54418968 -135.24565333 56.07078487 -121 41 C-120.25363281 40.18917969 -119.50726563 39.37835938 -118.73828125 38.54296875 C-102.14078473 21.12245587 -80.14534128 9.17643943 -57 3 C-56.25024902 2.79262207 -55.50049805 2.58524414 -54.72802734 2.37158203 C-37.00663826 -2.36685745 -18.12176348 -2.37377732 0 0 Z " transform="translate(317,368)" style="fill: #E0D8DA;"/><path d="M0 0 C0.80851913 0.00141495 1.61703827 0.0028299 2.45005798 0.00428772 C4.99669317 0.00982211 7.54323578 0.02236165 10.08984375 0.03515625 C11.83137893 0.04017975 13.5729155 0.04474116 15.31445312 0.04882812 C19.55211823 0.05976991 23.78971538 0.07698799 28.02734375 0.09765625 C28.02734375 0.42765625 28.02734375 0.75765625 28.02734375 1.09765625 C27.0115625 1.2678125 25.99578125 1.43796875 24.94921875 1.61328125 C16.35254779 3.10479737 8.20573584 4.97458894 0.02734375 8.09765625 C-0.91109375 8.45601562 -1.84953125 8.814375 -2.81640625 9.18359375 C-21.53737771 16.68204737 -38.08722117 26.7301786 -53.97265625 39.09765625 C-54.94074219 39.84789062 -55.90882813 40.598125 -56.90625 41.37109375 C-61.57207905 44.68639923 -61.57207905 44.68639923 -64.97265625 49.09765625 C-65.63265625 49.09765625 -66.29265625 49.09765625 -66.97265625 49.09765625 C-66.97265625 49.75765625 -66.97265625 50.41765625 -66.97265625 51.09765625 C-68.62268453 52.45152561 -70.29009495 53.78443767 -71.97265625 55.09765625 C-72.46765625 56.08765625 -72.46765625 56.08765625 -72.97265625 57.09765625 C-73.63265625 57.09765625 -74.29265625 57.09765625 -74.97265625 57.09765625 C-75.32650391 57.93490234 -75.32650391 57.93490234 -75.6875 58.7890625 C-77.27836522 61.64681735 -79.2687223 63.67650433 -81.53515625 66.03515625 C-87.04034049 71.99249539 -91.51862826 78.30505698 -95.97265625 85.09765625 C-96.63652344 86.09539062 -97.30039062 87.093125 -97.984375 88.12109375 C-101.15974167 92.98066957 -103.91947184 97.66275634 -105.97265625 103.09765625 C-106.63265625 103.09765625 -107.29265625 103.09765625 -107.97265625 103.09765625 C-108.06546875 104.24234375 -108.06546875 104.24234375 -108.16015625 105.41015625 C-109.5103948 111.53816198 -112.50271927 117.02712122 -115.203125 122.66796875 C-119.86803545 133.02437189 -122.27404755 144.10197875 -124.97265625 155.09765625 C-125.91882813 154.60136719 -126.865 154.10507812 -127.83984375 153.59375 C-141.07704164 146.7523568 -154.97721999 139.71610642 -169.97265625 138.09765625 C-165.60194877 115.69778041 -154.50698142 94.28581084 -140.97265625 76.09765625 C-140.57916992 75.55608887 -140.18568359 75.01452148 -139.78027344 74.45654297 C-110.91654867 34.87563183 -66.18827972 8.76025194 -17.97265625 1.09765625 C-11.96121881 0.27333829 -6.06350685 -0.04102291 0 0 Z " transform="translate(560.97265625,228.90234375)" style="fill: #E0D7DA;"/><path d="M0 0 C16.17 0 32.34 0 49 0 C49.28875 3.63 49.5775 7.26 49.875 11 C50.46749011 18.43688931 51.07017176 25.8726161 51.70336914 33.30615234 C53.60730244 55.72054963 55.23834186 78.15877298 56.82421875 100.59765625 C56.89166794 101.55039429 56.95911713 102.50313232 57.02861023 103.48474121 C57.35444132 108.09169027 57.67803052 112.69877874 57.99780273 117.30615234 C58.11567584 118.98405277 58.2335935 120.66195006 58.3515625 122.33984375 C58.40249557 123.08508804 58.45342865 123.83033234 58.50590515 124.59815979 C58.87113867 129.76019741 59.42735047 134.84615421 60 140 C43.5 140 27 140 10 140 C9.0625 127.875 9.0625 127.875 8.77368164 124.08544922 C8.69496826 123.08529785 8.61625488 122.08514648 8.53515625 121.0546875 C8.456604 120.03874512 8.37805176 119.02280273 8.29711914 117.97607422 C8.04520403 115.04861564 8.04520403 115.04861564 7.52270508 112.37915039 C6.72727524 107.23690641 6.44967242 102.0682062 6.1015625 96.87890625 C5.92645541 94.34779487 5.7509817 91.81670883 5.57519531 89.28564453 C5.52929197 88.61966594 5.48338863 87.95368734 5.43609428 87.26752758 C4.93753738 80.04592452 4.40705279 72.82672184 3.87703705 65.60737228 C3.54217592 61.03597422 3.21138993 56.46427958 2.88019943 51.89261436 C2.59761541 47.99458295 2.31351535 44.09667267 2.02636719 40.19897461 C1.74177607 36.33493419 1.46110032 32.47062669 1.18303299 28.60611153 C1.07837491 27.16094468 0.97236092 25.71587524 0.86484909 24.27091789 C0.71526105 22.25762643 0.57117331 20.24392867 0.42724609 18.23022461 C0.34445404 17.09556259 0.26166199 15.96090057 0.17636108 14.79185486 C-0.0527331 9.8662109 0 4.93096873 0 0 Z " transform="translate(345,919)" style="fill: #FEA631;"/><path d="M0 0 C3.62011046 2.33296007 5.89022378 4.96794755 7.8125 8.8125 C8.18425073 14.38876101 8.10449896 18.0802515 4.8125 22.8125 C-26.5570088 53.47309335 -82.15854448 63.30986899 -124.09375 63.1105957 C-152.08841238 62.59559107 -179.6682461 56.28696184 -205.1875 44.8125 C-206.26644531 44.3484375 -207.34539062 43.884375 -208.45703125 43.40625 C-213.72467919 40.99994523 -216.93457623 38.63941914 -220.1875 33.8125 C-221.39393566 30.19319302 -221.51018559 27.62018995 -221.1875 23.8125 C-218.91825515 19.52614862 -216.4300888 16.21048497 -212.1875 13.8125 C-204.59051997 12.71343338 -198.88010032 14.75187626 -192.125 18 C-182.96866128 22.15672581 -173.9332902 25.3679538 -164.1875 27.8125 C-163.03378906 28.10769531 -161.88007812 28.40289063 -160.69140625 28.70703125 C-113.77060821 39.71850177 -63.09818666 31.11238122 -22.1875 5.875 C-20.11026827 4.56241677 -18.03789862 3.2438956 -15.9765625 1.90649414 C-10.50025158 -1.44221618 -6.25609923 -2.33070363 0 0 Z " transform="translate(689.1875,565.1875)" style="fill: #020202;"/><path d="M0 0 C7.88441226 5.46618997 11.99882972 11.99648916 15 21 C15.94035953 31.99141553 14.39151385 40.19099411 7.375 48.8125 C1.22948451 55.32697702 -6.81144011 59.08594209 -15.75 59.375 C-28.54783716 59.19662327 -40.889973 53.00888697 -52.4375 47.9375 C-53.07165833 47.66152985 -53.70581665 47.38555969 -54.35919189 47.10122681 C-67.14137237 41.53308194 -79.62126686 35.41685248 -92 29 C-92 28.01 -92 27.02 -92 26 C-19.5166803 -11.32607349 -19.5166803 -11.32607349 0 0 Z " transform="translate(696,1046)" style="fill: #FBBC6A;"/><path d="M0 0 C1.60331177 0.75543091 1.60331177 0.75543091 3.23901367 1.52612305 C4.24295166 2.00863525 5.24688965 2.49114746 6.28125 2.98828125 C7.16876953 3.41278564 8.05628906 3.83729004 8.97070312 4.2746582 C11.74233548 5.82286635 14.07555958 7.64507777 16.5 9.6875 C-47.22115806 44.9167772 -47.22115806 44.9167772 -67.5 40.6875 C-77.07718294 37.52655785 -83.79054716 32.01043098 -88.875 23.34375 C-92.70051679 15.16139465 -92.9626137 5.9550144 -90 -2.5625 C-85.94689109 -11.30868238 -79.35675825 -17.58333863 -70.5 -21.3125 C-48.50026029 -28.00042087 -19.23435161 -9.12318337 0 0 Z " transform="translate(524.5,1064.3125)" style="fill: #FBBC6A;"/><path d="M0 0 C34.98 0 69.96 0 106 0 C104.74886034 11.26025693 102.30253113 18.09316247 93.44140625 25.3046875 C85.42885962 30.86859988 77.62506307 32.12295626 68 31 C57.81994344 28.23355443 48.07712171 24.11408316 38.4375 19.875 C37.79978668 19.59675385 37.16207336 19.31850769 36.5050354 19.03182983 C27.6347953 15.15767658 18.85868803 11.11724215 10.1875 6.8125 C9.26316162 6.35536621 8.33882324 5.89823242 7.38647461 5.42724609 C6.55124268 5.0039502 5.71601074 4.5806543 4.85546875 4.14453125 C4.12996826 3.77690674 3.40446777 3.40928223 2.65698242 3.03051758 C1 2 1 2 0 0 Z " transform="translate(605,1074)" style="fill: #FCFCFC;"/><path d="M0 0 C1.14901495 0.00138269 1.14901495 0.00138269 2.32124233 0.00279331 C3.19768902 0.00141865 4.0741357 0.00004398 4.97714138 -0.00137234 C6.43046368 0.00402058 6.43046368 0.00402058 7.91314602 0.00952244 C8.92766338 0.00937641 9.94218075 0.00923038 10.98744106 0.00907993 C14.35844936 0.00977954 17.72940317 0.01757414 21.10040188 0.02539158 C23.43067806 0.02725559 25.76095463 0.02867957 28.09123135 0.0296793 C34.23811828 0.03350581 40.38498176 0.04333723 46.5318594 0.05438328 C52.79884429 0.06459454 59.06583295 0.06917631 65.33282375 0.0742197 C77.63947471 0.08495938 89.94610822 0.10203739 102.25274563 0.12304783 C99.47658901 3.06028787 96.70587656 4.56332831 93.05743313 6.34570408 C92.44100445 6.64760151 91.82457577 6.94949894 91.18946743 7.26054478 C89.17273525 8.24370899 87.1508875 9.21564809 85.12774563 10.18554783 C84.43822811 10.51808567 83.74871059 10.85062351 83.03829861 11.19323826 C33.07830901 35.23720182 33.07830901 35.23720182 17.03790188 30.09179783 C8.78941939 26.34721562 2.31510041 20.76013952 -1.74725437 12.56054783 C-2.94215013 8.45309367 -3.04096278 5.3818198 -2.74725437 1.12304783 C-1.74725437 0.12304783 -1.74725437 0.12304783 0 0 Z " transform="translate(436.74725437164307,1073.8769521713257)" style="fill: #FCFCFC;"/><path d="M0 0 C0.66 0.33 1.32 0.66 2 1 C1.67 1.99 1.34 2.98 1 4 C0.01 4 -0.98 4 -2 4 C-2 4.99 -2 5.98 -2 7 C-5.3 7 -8.6 7 -12 7 C-9.21433585 4.91075189 -6.91066765 3.29668998 -3.875 1.75 C-2.85019531 1.21632813 -2.85019531 1.21632813 -1.8046875 0.671875 C-1.20914063 0.45015625 -0.61359375 0.2284375 0 0 Z " transform="translate(616,1066)" style="fill: #E9AE5F;"/><path d="M0 0 C0.7425 0.185625 1.485 0.37125 2.25 0.5625 C4.94990963 0.99203108 6.44631077 0.85122974 9 0 C9 1.32 9 2.64 9 4 C9.66 4 10.32 4 11 4 C11 4.66 11 5.32 11 6 C7.37 5.34 3.74 4.68 0 4 C0 2.68 0 1.36 0 0 Z " transform="translate(686,1010)" style="fill: #E9AD5F;"/><path d="M0 0 C-0.61520275 3.99881788 -2.60268669 6.80358226 -5 10 C-5.66 10 -6.32 10 -7 10 C-4.77777778 0 -4.77777778 0 0 0 Z " transform="translate(418,1033)" style="fill: #F2B463;"/><path d="M0 0 C0.91933305 3.67733219 0.99485581 5.59899538 0.5625 9.25 C0.46066406 10.14203125 0.35882812 11.0340625 0.25390625 11.953125 C0.17011719 12.62859375 0.08632813 13.3040625 0 14 C-1.32 12.68 -2.64 11.36 -4 10 C-2.68 6.7 -1.36 3.4 0 0 Z " transform="translate(789,1045)" style="fill: #F2B363;"/><path d="M0 0 C2.29013653 3.4352048 2.17842973 4.985331 2 9 C0.35 9 -1.3 9 -3 9 C-2.34 8.67 -1.68 8.34 -1 8 C-1.20625 7.4225 -1.4125 6.845 -1.625 6.25 C-2.08661261 3.48032433 -1.42944945 2.35438733 0 0 Z " transform="translate(709,1064)" style="fill: #EAAE5F;"/><path d="M0 0 C-2.35277269 2.72426311 -4.62496331 3.8141763 -8 5 C-7.625 2.5625 -7.625 2.5625 -7 0 C-4.3333581 -1.33332095 -2.83319697 -0.67102033 0 0 Z " transform="translate(439,1018)" style="fill: #F1B563;"/><path d="M0 0 C2.31 0 4.62 0 7 0 C6.67 0.99 6.34 1.98 6 3 C5.34 3 4.68 3 4 3 C3.67 3.66 3.34 4.32 3 5 C0.525 4.01 0.525 4.01 -2 3 C-1.34 2.67 -0.68 2.34 0 2 C0 1.34 0 0.68 0 0 Z " transform="translate(514,1025)" style="fill: #EDB160;"/><path d="M0 0 C1.32 0 2.64 0 4 0 C4.33 2.64 4.66 5.28 5 8 C4.01 8.495 4.01 8.495 3 9 C2.01 6.03 1.02 3.06 0 0 Z " transform="translate(734,1048)" style="fill: #EEB361;"/><path d="M0 0 C-5.41538462 4.06153846 -5.41538462 4.06153846 -8.375 3.75 C-8.91125 3.5025 -9.4475 3.255 -10 3 C-6.84439813 -0.15560187 -4.30999015 -1.43666338 0 0 Z " transform="translate(661,1048)" style="fill: #E4AA5E;"/><path d="M0 0 C2.62187494 1.04874998 3.79371361 1.64931313 5.25 4.125 C5.4975 4.74375 5.745 5.3625 6 6 C5.01 6 4.02 6 3 6 C0.8125 3.5 0.8125 3.5 -1 1 C-0.67 0.67 -0.34 0.34 0 0 Z " transform="translate(715,301)" style="fill: #E6E3E3;"/><path d="M0 0 C3.25696479 0.41755959 4.63443291 0.63443291 7 3 C4.6875 3.6875 4.6875 3.6875 2 4 C0.1875 2.5625 0.1875 2.5625 -1 1 C-0.67 0.67 -0.34 0.34 0 0 Z " transform="translate(523,1065)" style="fill: #EAAF62;"/><path d="M0 0 C-2.09782787 2.09782787 -3.3799207 2.6509396 -6.125 3.625 C-6.84945312 3.88539062 -7.57390625 4.14578125 -8.3203125 4.4140625 C-9.15175781 4.70410156 -9.15175781 4.70410156 -10 5 C-7.62417533 -0.26075462 -5.61350876 -0.1220328 0 0 Z " transform="translate(634,1026)" style="fill: #E9AE5E;"/><path d="M0 0 C1.67542976 0.28604898 3.34385343 0.61781233 5 1 C4.01 1.495 4.01 1.495 3 2 C3.33 3.32 3.66 4.64 4 6 C2.0625 5.1875 2.0625 5.1875 0 4 C-0.33 3.01 -0.66 2.02 -1 1 C-0.67 0.67 -0.34 0.34 0 0 Z " transform="translate(728,1035)" style="fill: #F0B362;"/><path d="M0 0 C0.99 0 1.98 0 3 0 C3 1.65 3 3.3 3 5 C2.34 5 1.68 5 1 5 C0.67 6.32 0.34 7.64 0 9 C0 6.03 0 3.06 0 0 Z " transform="translate(352,1019)" style="fill: #C98423;"/><path d="M0 0 C0 0.66 0 1.32 0 2 C0.99 2.33 1.98 2.66 3 3 C2.01 3.66 1.02 4.32 0 5 C-1.65 3.68 -3.3 2.36 -5 1 C-3 0 -3 0 0 0 Z " transform="translate(711,1018)" style="fill: #EBAF5E;"/><path d="M0 0 C1.67542976 0.28604898 3.34385343 0.61781233 5 1 C5 1.66 5 2.32 5 3 C5.66 3 6.32 3 7 3 C7 3.66 7 4.32 7 5 C1.25 3.25 1.25 3.25 -1 1 C-0.67 0.67 -0.34 0.34 0 0 Z " transform="translate(551,1044)" style="fill: #EFB360;"/></svg>